<svg width="30" height="22" viewBox="0 0 30 22" fill="none" xmlns="http://www.w3.org/2000/svg">
<path d="M27.1875 0.661133C28.7402 0.661133 30 1.83797 30 3.28972C30 4.11662 29.584 4.89425 28.875 5.39258L16.125 14.3298C15.457 14.7952 14.543 14.7952 13.875 14.3298L1.125 5.39258C0.416777 4.89425 0 4.11662 0 3.28972C0 1.83797 1.25918 0.661133 2.8125 0.661133H27.1875ZM12.75 15.7317C14.0859 16.6681 15.9141 16.6681 17.25 15.7317L30 6.79449V18.185C30 20.1181 28.3184 21.6898 26.25 21.6898H3.75C1.67871 21.6898 0 20.1181 0 18.185V6.79449L12.75 15.7317Z" fill="#CCCCCC"/>
</svg>
