<svg width="30" height="29" viewBox="0 0 30 29" fill="none" xmlns="http://www.w3.org/2000/svg">
<path d="M27.8571 0.857422H2.13616C0.957589 0.857422 0 1.76491 0 2.87893V26.8741C0 27.9882 0.957589 28.8956 2.13616 28.8956H27.8571C29.0357 28.8956 30 27.9882 30 26.8741V2.87893C30 1.76491 29.0357 0.857422 27.8571 0.857422ZM9.06696 24.8902H4.62054V11.5094H9.07366V24.8902H9.06696ZM6.84375 9.68195C5.41741 9.68195 4.26562 8.59922 4.26562 7.27242C4.26562 5.94561 5.41741 4.86288 6.84375 4.86288C8.26339 4.86288 9.42187 5.94561 9.42187 7.27242C9.42187 8.60548 8.27009 9.68195 6.84375 9.68195ZM25.7344 24.8902H21.2879V18.3813C21.2879 16.8292 21.2545 14.8327 18.9777 14.8327C16.6607 14.8327 16.3058 16.5225 16.3058 18.2687V24.8902H11.8594V11.5094H16.125V13.3369H16.1853C16.7812 12.2855 18.2344 11.1777 20.3973 11.1777C24.8973 11.1777 25.7344 13.9503 25.7344 17.5552V24.8902Z" fill="#CCCCCC"/>
</svg>
