<svg width="30" height="30" viewBox="0 0 30 30" fill="none" xmlns="http://www.w3.org/2000/svg">
<path d="M25.7143 0H4.28571C1.91853 0 0 1.91853 0 4.28571V25.7143C0 28.0815 1.91853 30 4.28571 30H25.7143C28.0815 30 30 28.0815 30 25.7143V4.28571C30 1.91853 28.0781 0 25.7143 0ZM23.5446 19.3862L22.7665 22.7605C22.6572 23.2376 22.2375 23.5714 21.746 23.5714C13.3018 23.5714 6.43125 16.7009 6.43125 8.25C6.43125 7.75929 6.765 7.33995 7.24219 7.2308L10.6158 6.45201C11.1076 6.33797 11.6123 6.59324 11.8165 7.05884L13.3748 10.6937C13.5569 11.1216 13.4339 11.6198 13.074 11.9137L11.2701 13.3929C12.4078 15.7105 14.2929 17.5949 16.6118 18.7333L18.0864 16.9312C18.3773 16.5702 18.8799 16.4458 19.3078 16.631L22.94 18.1879C23.404 18.3884 23.6585 18.8973 23.5446 19.3862Z" fill="#CCCCCC"/>
</svg>
